<svg width="279" height="48" fill="none" xmlns="http://www.w3.org/2000/svg"><path d="M23.226 40.556 11.333 28.985l-.597.648 12.49 12.173 15.52-15.043A11.806 11.806 0 0 0 42 18.617c0-3.037-1.166-5.956-3.254-8.146a9.596 9.596 0 0 0-3.188-2.204 9.532 9.532 0 0 0-3.791-.758h-.092a12.393 12.393 0 0 0-8.45 3.518c-2.755-2.592-5.28-3.935-7.576-3.935a10.9 10.9 0 0 0-4.29.88 10.973 10.973 0 0 0-3.608 2.5 11.556 11.556 0 0 0-3.077 5.923l.919.186a10.628 10.628 0 0 1 2.8-5.462 10.055 10.055 0 0 1 3.314-2.297 9.988 9.988 0 0 1 3.942-.804c2.112 0 4.546 1.296 7.21 3.934a.55.55 0 0 0 .78 0 11.528 11.528 0 0 1 8.036-3.471h.091a8.665 8.665 0 0 1 3.417.696 8.723 8.723 0 0 1 2.874 1.988 10.69 10.69 0 0 1 2.985 7.498 10.953 10.953 0 0 1-.826 4.12h-10.93a.457.457 0 0 0-.32.139l-5.098 5.415-5.372-12.265a.463.463 0 0 0-.399-.286.456.456 0 0 0-.428.24l-4.086 6.71H4.26v.926h9.597a.456.456 0 0 0 .413-.231l3.766-6.202 5.235 12.126a.461.461 0 0 0 .32.278h.093a.457.457 0 0 0 .321-.139l5.51-5.832h10.332a10.46 10.46 0 0 1-1.745 2.407L23.226 40.556Z" fill="#F70776" stroke="#F70776"/><path d="M60.78 13c2.02 0 3.72.68 5.1 2.04 1.38 1.36 2.07 3.03 2.07 5.01s-.69 3.65-2.07 5.01c-1.38 1.36-3.08 2.04-5.1 2.04h-3.69V34h-4.14V13h7.83Zm0 10.23c.88 0 1.61-.3 2.19-.9.58-.62.87-1.38.87-2.28 0-.92-.29-1.68-.87-2.28-.58-.6-1.31-.9-2.19-.9h-3.69v6.36h3.69Zm13.233-1.65c.36-.96.95-1.68 1.77-2.16.84-.48 1.77-.72 2.79-.72v4.32c-1.18-.14-2.24.1-3.18.72-.92.62-1.38 1.65-1.38 3.09V34h-3.87V19h3.87v2.58Zm9.537 6.51c.52 1.88 1.93 2.82 4.23 2.82 1.48 0 2.6-.5 3.36-1.5l3.12 1.8c-1.48 2.14-3.66 3.21-6.54 3.21-2.48 0-4.47-.75-5.97-2.25s-2.25-3.39-2.25-5.67c0-2.26.74-4.14 2.22-5.64 1.48-1.52 3.38-2.28 5.7-2.28 2.2 0 4.01.76 5.43 2.28 1.44 1.52 2.16 3.4 2.16 5.64 0 .5-.05 1.03-.15 1.59H83.55Zm-.06-3h7.65c-.22-1.02-.68-1.78-1.38-2.28-.68-.5-1.46-.75-2.34-.75-1.04 0-1.9.27-2.58.81-.68.52-1.13 1.26-1.35 2.22Zm21.244 9.33c-2.26 0-4.15-.76-5.67-2.28-1.5-1.52-2.25-3.4-2.25-5.64 0-2.24.75-4.12 2.25-5.64 1.52-1.52 3.41-2.28 5.67-2.28 1.46 0 2.79.35 3.99 1.05 1.2.7 2.11 1.64 2.73 2.82l-3.33 1.95c-.3-.62-.76-1.11-1.38-1.47-.6-.36-1.28-.54-2.04-.54-1.16 0-2.12.39-2.88 1.17-.76.76-1.14 1.74-1.14 2.94 0 1.18.38 2.16 1.14 2.94.76.76 1.72 1.14 2.88 1.14.78 0 1.47-.17 2.07-.51.62-.36 1.08-.85 1.38-1.47l3.36 1.92c-.66 1.18-1.59 2.13-2.79 2.85-1.2.7-2.53 1.05-3.99 1.05Zm10.747-17.22c-.64 0-1.2-.23-1.68-.69-.46-.48-.69-1.04-.69-1.68 0-.64.23-1.2.69-1.68.48-.48 1.04-.72 1.68-.72.66 0 1.22.24 1.68.72.48.48.72 1.04.72 1.68 0 .64-.24 1.2-.72 1.68-.46.46-1.02.69-1.68.69Zm-1.92 16.8V19h3.87v15h-3.87Zm10.865-10.74c0 .4.26.73.78.99.54.24 1.19.46 1.95.66.76.18 1.52.42 2.28.72.76.28 1.4.76 1.92 1.44.54.68.81 1.53.81 2.55 0 1.54-.58 2.73-1.74 3.57-1.14.82-2.57 1.23-4.29 1.23-3.08 0-5.18-1.19-6.3-3.57l3.36-1.89c.44 1.3 1.42 1.95 2.94 1.95 1.38 0 2.07-.43 2.07-1.29 0-.4-.27-.72-.81-.96-.52-.26-1.16-.49-1.92-.69-.76-.2-1.52-.45-2.28-.75-.76-.3-1.41-.77-1.95-1.41-.52-.66-.78-1.48-.78-2.46 0-1.48.54-2.64 1.62-3.48 1.1-.86 2.46-1.29 4.08-1.29 1.22 0 2.33.28 3.33.84 1 .54 1.79 1.32 2.37 2.34l-3.3 1.8c-.48-1.02-1.28-1.53-2.4-1.53-.5 0-.92.11-1.26.33-.32.22-.48.52-.48.9Zm12.149-6.06c-.64 0-1.2-.23-1.68-.69-.46-.48-.69-1.04-.69-1.68 0-.64.23-1.2.69-1.68.48-.48 1.04-.72 1.68-.72.66 0 1.22.24 1.68.72.48.48.72 1.04.72 1.68 0 .64-.24 1.2-.72 1.68-.46.46-1.02.69-1.68.69Zm-1.92 16.8V19h3.87v15h-3.87Zm20.192-1.86c-1.54 1.52-3.42 2.28-5.64 2.28-2.22 0-4.1-.76-5.64-2.28-1.52-1.54-2.28-3.42-2.28-5.64 0-2.22.76-4.09 2.28-5.61 1.54-1.54 3.42-2.31 5.64-2.31 2.22 0 4.1.77 5.64 2.31 1.54 1.52 2.31 3.39 2.31 5.61s-.77 4.1-2.31 5.64Zm-8.55-2.67c.78.78 1.75 1.17 2.91 1.17 1.16 0 2.13-.39 2.91-1.17.78-.78 1.17-1.77 1.17-2.97 0-1.2-.39-2.19-1.17-2.97-.78-.78-1.75-1.17-2.91-1.17-1.16 0-2.13.39-2.91 1.17-.76.78-1.14 1.77-1.14 2.97 0 1.2.38 2.19 1.14 2.97Zm21.922-10.89c1.64 0 2.99.55 4.05 1.65 1.08 1.1 1.62 2.62 1.62 4.56V34h-3.87v-8.73c0-1-.27-1.76-.81-2.28-.54-.54-1.26-.81-2.16-.81-1 0-1.8.31-2.4.93-.6.62-.9 1.55-.9 2.79V34h-3.87V19h3.87v1.68c.94-1.4 2.43-2.1 4.47-2.1Zm9.155 8.22v-3.72h11.25v3.72h-11.25ZM204.46 13h4.11v21h-4.11v-8.7h-7.8V34h-4.14V13h4.14v8.34h7.8V13Zm11.101 15.09c.52 1.88 1.93 2.82 4.23 2.82 1.48 0 2.6-.5 3.36-1.5l3.12 1.8c-1.48 2.14-3.66 3.21-6.54 3.21-2.48 0-4.47-.75-5.97-2.25s-2.25-3.39-2.25-5.67c0-2.26.74-4.14 2.22-5.64 1.48-1.52 3.38-2.28 5.7-2.28 2.2 0 4.01.76 5.43 2.28 1.44 1.52 2.16 3.4 2.16 5.64 0 .5-.05 1.03-.15 1.59h-11.31Zm-.06-3h7.65c-.22-1.02-.68-1.78-1.38-2.28-.68-.5-1.46-.75-2.34-.75-1.04 0-1.9.27-2.58.81-.68.52-1.13 1.26-1.35 2.22ZM241.006 19h3.87v15h-3.87v-1.77c-1.16 1.46-2.79 2.19-4.89 2.19-2 0-3.72-.76-5.16-2.28-1.42-1.54-2.13-3.42-2.13-5.64 0-2.22.71-4.09 2.13-5.61 1.44-1.54 3.16-2.31 5.16-2.31 2.1 0 3.73.73 4.89 2.19V19Zm-7.14 10.56c.78.78 1.77 1.17 2.97 1.17 1.2 0 2.19-.39 2.97-1.17.8-.8 1.2-1.82 1.2-3.06s-.4-2.25-1.2-3.03c-.78-.8-1.77-1.2-2.97-1.2-1.2 0-2.19.4-2.97 1.2-.78.78-1.17 1.79-1.17 3.03 0 1.24.39 2.26 1.17 3.06Zm18.389-7.98c.36-.96.95-1.68 1.77-2.16.84-.48 1.77-.72 2.79-.72v4.32c-1.18-.14-2.24.1-3.18.72-.92.62-1.38 1.65-1.38 3.09V34h-3.87V19h3.87v2.58Zm15.814 1.14h-3.39v6.24c0 .52.13.9.39 1.14.26.24.64.38 1.14.42.5.02 1.12.01 1.86-.03V34c-2.66.3-4.54.05-5.64-.75-1.08-.8-1.62-2.23-1.62-4.29v-6.24h-2.61V19h2.61v-3.03l3.87-1.17V19h3.39v3.72Z" fill="#F70776"/></svg>